# xmcd CD Database Entry
#
# Track frame offsets:
# 150
# 18907
# 27427
# 38530
# 49095
# 57625
# 71150
# 92665
# 104202
# 116865
# 128827
# 150017
# 162642
# 183259
# 189470
# 207455
# 221072
# 236572
# 243730
# 262097
# 272355
# 288122
# 298280
# 312430
# 324215
# 332495
#
# Disc length: 4560 seconds
#
# Revision: 1
# Processed by: cddbd v1.4PL0 Copyright (c) Steve Scherf et al.
# Submitted via: tcd 2.0b
#
DISCID=8c11ce1a
DTITLE=Povl Kjøller - Den komplette disc 2 af 2
DYEAR=1900
DGENRE=
TTITLE0=Bakke snagvendt 2000
TTITLE1=Raggadanga Dingaling Boing Boing
TTITLE2=Klap i takt
TTITLE3=Bøger bruger ikke batterier
TTITLE4=Marsin, søde marsvin
TTITLE5=Tandbørstenova
TTITLE6=I min klasse
TTITLE7=Inde i den mindste myg
TTITLE8=Krible krableand
TTITLE9=Fodbold
TTITLE10=Jeg kender ikke rigtig nogen
TTITLE11=Se dyrene
TTITLE12=Fortæl mig en historie
TTITLE13=Larvens sang
TTITLE14=Sørøver søskræk
TTITLE15=Ka' det aldrig bli' vinter
TTITLE16=Supermarked
TTITLE17=Forårssang 2
TTITLE18=Kedelig søndag
TTITLE19=Gyngesangen
TTITLE20=Familiesang
TTITLE21=Nu sner det
TTITLE22=Anne har en lillesøster
TTITLE23=Trille tusindfryds godnatsang
TTITLE24=Min cykel
TTITLE25=Godnatsangen
EXTD=
EXTT0=
EXTT1=
EXTT2=
EXTT3=
EXTT4=
EXTT5=
EXTT6=
EXTT7=
EXTT8=
EXTT9=
EXTT10=
EXTT11=
EXTT12=
EXTT13=
EXTT14=
EXTT15=
EXTT16=
EXTT17=
EXTT18=
EXTT19=
EXTT20=
EXTT21=
EXTT22=
EXTT23=
EXTT24=
EXTT25=
PLAYORDER=
